# xmcd
#
# Track frame offsets: 
#        150
#        13469
#        34109
#        48926
#        70502
#        86912
#        102213
#        125111
#        137805
#        152680
#        170240
#        185859
#        200068
#
# Disc length: 2885 seconds
#
# Revision: 0
# Processed by: cddbd v1.5.2PL0 Copyright (c) Steve Scherf et al.
# Submitted via: ExactAudioCopy v0.99pb3
#
DISCID=c40b430d
DTITLE=Dave Walker and The Ambulators  - Mostly Sunny - A Tribute To Son
DTITLE=ny Boy Williamson
DYEAR=2005
DGENRE=Blues
TTITLE0=Don't Start Me Talkin'
TTITLE1=Nine Below Zero
TTITLE2=Bring It On Home
TTITLE3=Help Me
TTITLE4=Eyesight To The Blind
TTITLE5=Keep It To Yourself
TTITLE6=Miss You Too
TTITLE7=Talk The Talk (Instrumental)
TTITLE8=Soup In A Basket
TTITLE9=Floreen
TTITLE10=Driftin'
TTITLE11=Ninety Nine
TTITLE12=The Midnight Special
EXTD=
EXTT0=
EXTT1=
EXTT2=
EXTT3=
EXTT4=
EXTT5=
EXTT6=
EXTT7=
EXTT8=
EXTT9=
EXTT10=
EXTT11=
EXTT12=
PLAYORDER=
